User Type,Username,Date,Text
,Kaptan_,2012-07-07T19:24Z,"Video info:
Duration: 00:24:45.48, start: 0.000000, bitrate: 1604 kb/s
    Stream #0.0(und): Video: h264 (Main), yuv420p, 1280x720 [PAR 1:1 DAR 16:9], 1500 kb/s, 25 fps, 25 tbr, 25 tbn, 50 tbc

    Stream #0.1(und): Audio: mp3, 44100 Hz, stereo, s16, 95 kb/s"
,Rush,2012-07-07T20:40Z,COMMENTARY IN SPANISH.... 
